<svg class="icon-svg" xmlns="http://www.w3.org/2000/svg" viewBox="0 0 162.37 150.17">
  <title class="svg-title">MicroMasters Icon</title>
  <g>
    <path class="icon-fill micromasters" d="M31.57,65.82a3,3,0,0,0,.72.09,3,3,0,0,0,2.91-2.28,74.73,74.73,0,0,1,14-28.45A143.33,143.33,0,0,0,63.68,39a75.1,75.1,0,0,0-8.46,23.65,3,3,0,1,0,5.91,1.06A68,68,0,0,1,70,40.24a216.58,216.58,0,0,0,36.87,3.29V63.18a3,3,0,1,0,6,0V43.48a224.37,224.37,0,0,0,35.75-3.67,67.78,67.78,0,0,1,9,23.66,3,3,0,1,0,5.91-1.06A74.82,74.82,0,0,0,155,38.54q6.81-1.46,13.86-3.43a74.71,74.71,0,0,1,14,28.43,3,3,0,1,0,5.82-1.45,82.24,82.24,0,0,0-159.27.1A3,3,0,0,0,31.57,65.82Zm42.2-31.16c11.14-15,26.08-23.14,33.12-26.39V37.41A217.27,217.27,0,0,1,73.77,34.67Zm39.12,2.7V8.72c7.35,3.47,21.4,11.46,32,25.63A218.5,218.5,0,0,1,112.89,37.37Zm51.57-7.27q-6.54,1.75-12.89,3A87.8,87.8,0,0,0,124.33,7.95,76,76,0,0,1,164.47,30.09ZM95,7.71A88.63,88.63,0,0,0,67.11,33.47c-6.06-1.19-10.7-2.41-13.63-3.27A76,76,0,0,1,95,7.71Z" transform="translate(-28.32 -0.42)"/>
    <path class="icon-fill micromasters" d="M187.68,144.34h0l-156.37.25a3,3,0,0,0,0,6h0l156.37-.25A3,3,0,0,0,187.68,144.34Z" transform="translate(-28.32 -0.42)"/>
    <path class="icon-fill micromasters" d="M31.32,82.85h0l156.37-.25a3,3,0,1,0,0-6l-156.37.25A3,3,0,0,0,31.32,82.85Z" transform="translate(-28.32 -0.42)"/>
    <path class="icon-fill micromasters" d="M31.32,135.06a3,3,0,0,0,3-3V103.72l28.44,28.45a3.09,3.09,0,0,0,4.24,0l28.44-28.45v28.34a3,3,0,1,0,6,0V96.47a3,3,0,0,0-5.12-2.12L64.88,125.81,33.44,94.35a3,3,0,0,0-5.12,2.12v35.59A3,3,0,0,0,31.32,135.06Z" transform="translate(-28.32 -0.42)"/>
    <path class="icon-fill micromasters" d="M188.83,93.7a3,3,0,0,0-3.27.65l-31.44,31.45L122.69,94.35a3,3,0,0,0-5.12,2.12v35.59a3,3,0,0,0,6,0V103.72L152,132.17a3.09,3.09,0,0,0,4.24,0l28.44-28.45v28.34a3,3,0,0,0,6,0V96.47A3,3,0,0,0,188.83,93.7Z" transform="translate(-28.32 -0.42)"/>
  </g>
</svg>
