<svg xmlns="http://www.w3.org/2000/svg" viewBox="0 0 550.66 164.27" role="img" aria-label="Professional Certificate Logo">
    <defs><style>.professional-certificate-logo{}</style></defs>
    <title class="professional-certificate-logo-title">Professional Certificate Logo</title>
    <g class="professional-certificate-logo">
        <path d="M26.95,43.78h8.11q9.47,0,14.64-4.06t5.17-11.66Q54.87,13,36.13,13H23.29V65.45h3.66Zm0-27.49h8.69q7.82,0,11.56,2.92t3.73,9q0,6.57-3.95,9.49T34.16,40.62H26.95Z" transform="translate(-15.72 -12.16)"/>
        <path d="M100.17,65.45h4.38L90.3,41.55a15.46,15.46,0,0,0,8.45-5.2,14.19,14.19,0,0,0,2.78-8.9q0-7.25-4.67-10.86T82.44,13H70V65.45h3.66V42.59h13Zm-26.56-26V16.29H82.3q8.11,0,11.7,2.73t3.59,8.72q0,5.78-3.66,8.74t-10.3,3Z" transform="translate(-15.72 -12.16)"/>
        <path d="M155.17,58.9q6.24-7.27,6.24-19.76T155.2,19.39Q149,12.16,138,12.16t-17.21,7.2q-6.3,7.2-6.3,19.72t6.24,19.83q6.24,7.27,17.19,7.27T155.17,58.9Zm-31.65-2.33q-5-6.16-5-17.42t5.08-17.33q5.08-6.1,14.44-6.1t14.41,6q5,6,5,17.39t-5,17.48q-5,6.1-14.48,6.1T123.52,56.57Z" transform="translate(-15.72 -12.16)"/>
        <polygon points="188.78 26.45 165.09 26.45 165.09 4.2 190.18 4.2 190.18 0.82 161.43 0.82 161.43 53.3 165.09 53.3 165.09 29.86 188.78 29.86 188.78 26.45"/>
        <polygon points="202 53.3 230.68 53.3 230.68 49.92 205.66 49.92 205.66 27.42 229.28 27.42 229.28 24.05 205.66 24.05 205.66 4.2 230.68 4.2 230.68 0.82 202 0.82 202 53.3"/>
        <path d="M290.91,51.92a12.35,12.35,0,0,0-1.42-6.12,13.18,13.18,0,0,0-4.5-4.52,44.49,44.49,0,0,0-9.22-4.11,47.43,47.43,0,0,1-8.25-3.57A9.73,9.73,0,0,1,264,30.25,9.59,9.59,0,0,1,263,25.47a8.79,8.79,0,0,1,3.45-7.32q3.45-2.69,9.26-2.69a32.41,32.41,0,0,1,12.49,2.73L289.51,15a34.72,34.72,0,0,0-13.89-2.8q-7.25,0-11.86,3.71a11.77,11.77,0,0,0-4.61,9.6,11.87,11.87,0,0,0,3.07,8.56q3.07,3.21,11.11,6a50.47,50.47,0,0,1,8.33,3.48,11.46,11.46,0,0,1,4.09,3.57A9,9,0,0,1,287,52.07a9.39,9.39,0,0,1-3.79,7.77q-3.79,3-10.25,3-8.79,0-14.46-2.4v3.66q5.13,2.12,14.75,2.12,8,0,12.83-3.84A12.6,12.6,0,0,0,290.91,51.92Z" transform="translate(-15.72 -12.16)"/>
        <path d="M328.71,41.28a44.52,44.52,0,0,0-9.22-4.11,47.33,47.33,0,0,1-8.25-3.57,9.73,9.73,0,0,1-3.46-3.36,9.58,9.58,0,0,1-1.06-4.77,8.79,8.79,0,0,1,3.45-7.32q3.45-2.69,9.26-2.69a32.4,32.4,0,0,1,12.49,2.73L333.23,15a34.72,34.72,0,0,0-13.89-2.8q-7.25,0-11.86,3.71a11.76,11.76,0,0,0-4.61,9.6,11.88,11.88,0,0,0,3.07,8.56q3.07,3.21,11.11,6a50.48,50.48,0,0,1,8.33,3.48,11.46,11.46,0,0,1,4.09,3.57,9,9,0,0,1,1.26,4.93,9.39,9.39,0,0,1-3.79,7.77q-3.79,3-10.25,3-8.79,0-14.46-2.4v3.66q5.13,2.12,14.75,2.12,8,0,12.83-3.84a12.6,12.6,0,0,0,4.83-10.41,12.34,12.34,0,0,0-1.42-6.12A13.18,13.18,0,0,0,328.71,41.28Z" transform="translate(-15.72 -12.16)"/>
        <rect x="333.68" y="0.83" width="3.66" height="52.47"/>
        <path d="M392.23,66.17q11,0,17.23-7.27t6.25-19.76q0-12.52-6.21-19.76T392.3,12.16q-10.91,0-17.21,7.2t-6.3,19.72q0,12.56,6.24,19.83T392.23,66.17ZM377.85,21.81q5.08-6.1,14.45-6.1t14.41,6q5,6,5,17.39t-5,17.48q-5,6.1-14.48,6.1T377.8,56.57q-5-6.16-5-17.42T377.85,21.81Z" transform="translate(-15.72 -12.16)"/>
        <path d="M469.58,13H466V47.22q0,5.81.32,12.27h-.21L435.09,13h-3.66V65.45h3.52v-34q0-4.23-.43-12.56h.29l31.08,46.58h3.7Z" transform="translate(-15.72 -12.16)"/>
        <path d="M501.79,12.77l-21.1,52.68h4.06l7.32-18.52h21.32l7.29,18.52h4.13L504.12,12.77Zm10.37,30.86H493.39l7.36-18.84a57.27,57.27,0,0,0,2.12-6.24q1.26,3.95,2.15,6.17Z" transform="translate(-15.72 -12.16)"/>
        <polygon points="548.86 49.85 523.84 49.85 523.84 0.82 520.18 0.82 520.18 53.3 548.86 53.3 548.86 49.85"/>
        <path d="M30.46,112.91a27.55,27.55,0,0,0-10.94,11.82,39.27,39.27,0,0,0-3.81,17.7q0,16.08,8,25t21.84,9a49.66,49.66,0,0,0,16.3-2.3v-4.05a51.94,51.94,0,0,1-15.22,2.12q-12.48,0-19.19-7.79t-6.71-21.89q0-13.78,7.12-21.71t19.5-7.93a33.41,33.41,0,0,1,15.13,3.6l1.85-4.14a39.84,39.84,0,0,0-17.25-3.6A32.33,32.33,0,0,0,30.46,112.91Z" transform="translate(-15.72 -12.16)"/>
        <polygon points="65.41 163.37 101.39 163.37 101.39 159.14 70 159.14 70 130.9 99.64 130.9 99.64 126.67 70 126.67 70 101.76 101.39 101.76 101.39 97.53 65.41 97.53 65.41 163.37"/>
        <path d="M172.77,139a17.81,17.81,0,0,0,3.49-11.17q0-9.1-5.85-13.62t-18.1-4.53H136.63v65.84h4.59V146.84h16.35l17,28.69H180l-17.88-30Q169.28,143.55,172.77,139Zm-19,3.87H141.22v-29h10.9q10.18,0,14.68,3.42t4.5,10.94q0,7.25-4.59,11T153.79,142.88Z" transform="translate(-15.72 -12.16)"/>
        <polygon points="171.46 101.85 192.85 101.85 192.85 163.37 197.49 163.37 197.49 101.85 218.88 101.85 218.88 97.53 171.46 97.53 171.46 101.85"/>
        <rect x="233.27" y="97.53" width="4.59" height="65.84"/>
        <polygon points="261.12 163.37 265.71 163.37 265.71 133.96 295.44 133.96 295.44 129.68 265.71 129.68 265.71 101.76 297.19 101.76 297.19 97.53 261.12 97.53 261.12 163.37"/>
        <rect x="312.03" y="97.53" width="4.59" height="65.84"/>
        <path d="M366.83,112.91a27.54,27.54,0,0,0-10.94,11.82,39.27,39.27,0,0,0-3.81,17.7q0,16.08,8,25t21.84,9a49.67,49.67,0,0,0,16.3-2.3v-4.05A52,52,0,0,1,383,172.2q-12.47,0-19.18-7.79t-6.71-21.89q0-13.78,7.12-21.71t19.5-7.93a33.41,33.41,0,0,1,15.13,3.6l1.85-4.14a39.84,39.84,0,0,0-17.25-3.6A32.33,32.33,0,0,0,366.83,112.91Z" transform="translate(-15.72 -12.16)"/>
        <path d="M434.65,109.42l-26.48,66.11h5.09l9.19-23.24H449.2l9.14,23.24h5.18l-25.94-66.11Zm13,38.73H424.11l9.23-23.64a72.33,72.33,0,0,0,2.66-7.84q1.58,5,2.7,7.75Z" transform="translate(-15.72 -12.16)"/>
        <polygon points="452.87 101.85 474.26 101.85 474.26 163.37 478.89 163.37 478.89 101.85 500.29 101.85 500.29 97.53 452.87 97.53 452.87 101.85"/>
        <polygon points="550.66 101.76 550.66 97.53 514.67 97.53 514.67 163.37 550.66 163.37 550.66 159.14 519.27 159.14 519.27 130.9 548.9 130.9 548.9 126.67 519.27 126.67 519.27 101.76 550.66 101.76"/>
    </g>
</svg>