<svg xmlns="http://www.w3.org/2000/svg" viewBox="0 0 544.07 277.95" role="img" aria-label="XSeries Certificate Logo">
  <title class="xseries-logo-title">XSeries Certificate Logo</title>
  <g class="xseries-logo">
    <g>
      <g>
        <path  d="M33.19,178.78,12,123.54h-.34q.6,6.57.6,15.6v39.64H5.61V116.46H16.52l19.74,51.41h.34l19.91-51.41H67.33v62.32H60.09V138.63q0-6.91.6-15h-.34L39,178.78Z" transform="translate(-4.56 -3.25)"/>
        <path d="M75.78,119.4A4.7,4.7,0,0,1,77,115.84a4.42,4.42,0,0,1,5.93,0,4.62,4.62,0,0,1,1.24,3.54A4.69,4.69,0,0,1,82.9,123,4.13,4.13,0,0,1,80,124.13,4.08,4.08,0,0,1,77,123,4.78,4.78,0,0,1,75.78,119.4Zm7.67,59.38H76.38V132.06h7.08Z" transform="translate(-4.56 -3.25)"/>
        <path d="M111.89,179.63q-10.15,0-15.71-6.24t-5.56-17.67q0-11.72,5.65-18.12t16.09-6.39a32,32,0,0,1,6.74.72,22.25,22.25,0,0,1,5.29,1.71l-2.17,6a33.42,33.42,0,0,0-5.12-1.56,22.89,22.89,0,0,0-4.9-.62Q98,137.48,98,155.64q0,8.61,3.47,13.21t10.29,4.6a31.46,31.46,0,0,0,12-2.52v6.27A25.53,25.53,0,0,1,111.89,179.63Z" transform="translate(-4.56 -3.25)"/>
        <path d="M152.61,131.21a27.7,27.7,0,0,1,5.58.51l-1,6.56a24.12,24.12,0,0,0-5.12-.64,12.45,12.45,0,0,0-9.7,4.6,16.79,16.79,0,0,0-4,11.47v25.07h-7.08V132.06h5.84l.81,8.65h.34a20.53,20.53,0,0,1,6.27-7A14.11,14.11,0,0,1,152.61,131.21Z" transform="translate(-4.56 -3.25)"/>
        <path d="M201.14,155.38q0,11.42-5.75,17.84t-15.9,6.42a21.06,21.06,0,0,1-11.13-2.94,19.41,19.41,0,0,1-7.5-8.44,29.4,29.4,0,0,1-2.64-12.87q0-11.42,5.71-17.8t15.86-6.37q9.8,0,15.58,6.52T201.14,155.38Zm-35.59,0q0,9,3.58,13.64t10.53,4.69q6.95,0,10.55-4.67t3.6-13.66q0-8.91-3.6-13.53t-10.64-4.63q-6.95,0-10.49,4.56T165.55,155.38Z" transform="translate(-4.56 -3.25)"/>
        <path d="M235.91,178.78l-15-48.89h-.38q.81,14.92.81,19.91v29H209.52V116.46h18l14.75,47.66h.26l15.64-47.66h18v62.32H263.83v-29.5q0-2.09.06-4.82t.58-14.49h-.38L248,178.78Z" transform="translate(-4.56 -3.25)"/>
        <path d="M315.84,178.78l-2.52-6.48H313a19.21,19.21,0,0,1-6.76,5.73,21.84,21.84,0,0,1-9.06,1.6q-6.86,0-10.81-3.92t-3.94-11.17q0-7.59,5.31-11.19t16-4l8.27-.26V147q0-7.25-7.42-7.25-5.71,0-13.43,3.45l-4.31-8.78a38.75,38.75,0,0,1,18.24-4.31q9.59,0,14.71,4.18t5.12,12.7v31.76ZM312,156.7l-5,.17q-5.67.17-8.44,2a6.43,6.43,0,0,0-2.77,5.71q0,5.5,6.31,5.5a10,10,0,0,0,7.23-2.6,9.13,9.13,0,0,0,2.71-6.91Z" transform="translate(-4.56 -3.25)"/>
        <path d="M367.19,164.63q0,7.33-5.09,11.17t-15.24,3.84a47.86,47.86,0,0,1-8.87-.7,33.48,33.48,0,0,1-6.86-2.07V166.12a45.28,45.28,0,0,0,8.16,2.86,33.05,33.05,0,0,0,8,1.15q7.08,0,7.08-4.09a3.42,3.42,0,0,0-.94-2.49,13.6,13.6,0,0,0-3.24-2.17q-2.3-1.21-6.14-2.83a38.53,38.53,0,0,1-8.08-4.26,12,12,0,0,1-3.75-4.5,14.83,14.83,0,0,1-1.17-6.24A11.32,11.32,0,0,1,336,133.7q4.92-3.47,14-3.47A39.64,39.64,0,0,1,366.68,134l-3.92,9.38q-3.58-1.53-6.69-2.52a21,21,0,0,0-6.35-1q-5.75,0-5.75,3.11a3.66,3.66,0,0,0,1.85,3,50.4,50.4,0,0,0,8.12,3.79,37.81,37.81,0,0,1,8.18,4.22,12.5,12.5,0,0,1,3.84,4.52A13.89,13.89,0,0,1,367.19,164.63Z" transform="translate(-4.56 -3.25)"/>
        <path d="M397,169.28a28.16,28.16,0,0,0,8.18-1.49v9.68a29.18,29.18,0,0,1-11.94,2.17q-7.8,0-11.36-3.94t-3.56-11.83v-23h-6.22v-5.5l7.16-4.35L383,121h8.31v10.15h13.34v9.76H391.31v23a5.07,5.07,0,0,0,1.56,4.09A6.14,6.14,0,0,0,397,169.28Z" transform="translate(-4.56 -3.25)"/>
        <path d="M433.75,179.63q-11.51,0-18-6.35t-6.48-18q0-12,6-18.52t16.56-6.54q10.1,0,15.73,5.75t5.63,15.9v6.31H422.45q.21,5.54,3.28,8.65t8.61,3.11a35.75,35.75,0,0,0,8.14-.9,40.73,40.73,0,0,0,8-2.86v10.06a30.53,30.53,0,0,1-7.29,2.54A46,46,0,0,1,433.75,179.63Zm-1.83-40.16a8.25,8.25,0,0,0-6.48,2.62,12.13,12.13,0,0,0-2.69,7.44H441q-.09-4.82-2.52-7.44A8.52,8.52,0,0,0,431.91,139.48Z" transform="translate(-4.56 -3.25)"/>
        <path d="M486,130.23a21,21,0,0,1,4.39.38l-1,12.19a14.93,14.93,0,0,0-3.84-.43q-6.22,0-9.7,3.2t-3.47,9v24.26h-13V131.12h9.85l1.92,8h.64a17.92,17.92,0,0,1,6-6.46A14.77,14.77,0,0,1,486,130.23Z" transform="translate(-4.56 -3.25)"/>
        <path d="M530.54,164.63q0,7.33-5.09,11.17t-15.24,3.84a47.86,47.86,0,0,1-8.87-.7,33.48,33.48,0,0,1-6.86-2.07V166.12a45.28,45.28,0,0,0,8.16,2.86,33.05,33.05,0,0,0,8,1.15q7.08,0,7.08-4.09a3.42,3.42,0,0,0-.94-2.49,13.6,13.6,0,0,0-3.24-2.17q-2.3-1.21-6.14-2.83a38.53,38.53,0,0,1-8.08-4.26,12,12,0,0,1-3.75-4.5,14.83,14.83,0,0,1-1.17-6.24,11.32,11.32,0,0,1,4.92-9.83q4.92-3.47,14-3.47A39.64,39.64,0,0,1,530,134l-3.92,9.38q-3.58-1.53-6.69-2.52a21,21,0,0,0-6.35-1q-5.75,0-5.75,3.11a3.66,3.66,0,0,0,1.85,3,50.4,50.4,0,0,0,8.12,3.79,37.81,37.81,0,0,1,8.18,4.22,12.5,12.5,0,0,1,3.84,4.52A13.89,13.89,0,0,1,530.54,164.63Z" transform="translate(-4.56 -3.25)"/>
      </g>
      <path d="M538.08,135.92h-.92v-6.85h-2.31v-.83h5.56v.83h-2.33Zm6.39,0-2.36-6.49h-.06l0,2.14v4.35h-.87v-7.68h1.33l2.36,6.46,2.39-6.46h1.33v7.68h-.92v-4.24l0-2.21h-.07l-2.42,6.45Z" transform="translate(-4.56 -3.25)"/>
      <rect x="4.56" y="92.78" width="196.26" height="5.21" transform="translate(-4.7 -3.09) rotate(-0.09)"/>
      <path d="M12.3,78.6a92.78,92.78,0,0,1,17.07-34,194.15,194.15,0,0,0,19.34,4.84A90.13,90.13,0,0,0,37.83,78.6h5.95a84.62,84.62,0,0,1,11-28,278.09,278.09,0,0,0,45.82,4.11V78.6h5.83V54.68a280.23,280.23,0,0,0,46-4.4,84.25,84.25,0,0,1,11.1,28.32h5.95a89.76,89.76,0,0,0-11-29.48q9.38-1.91,19.11-4.61A92.76,92.76,0,0,1,194.8,78.6h6C189.78,34.23,149.77,3.25,103.55,3.25S17.32,34.23,6.26,78.6Zm161.16-39q-9.28,2.49-18.24,4.23c-11.57-17-27-27.73-38-33.77A94.46,94.46,0,0,1,173.46,39.62Zm-67-28.47C115.06,15,134.66,25.37,148.89,45a274.45,274.45,0,0,1-42.44,3.87Zm-5.83,37.74a272.37,272.37,0,0,1-42.27-3.59c14.11-19.56,33.53-30,42.27-34ZM90.25,10C79.32,16.09,63.68,27,52,44.16c-8.35-1.61-14.67-3.27-18.52-4.4A94.44,94.44,0,0,1,90.25,10Z" transform="translate(-4.56 -3.25)"/>
    </g>
    <g>
      <path d="M36.64,221.25q-11.68,0-18.39,7.48t-6.71,20.48q0,13.29,6.33,20.64T36,277.2a49,49,0,0,0,14.36-2V279a46.83,46.83,0,0,1-15.38,2.17q-13.08,0-20.6-8.45T6.82,249.12a37,37,0,0,1,3.59-16.69,26,26,0,0,1,10.32-11.15,30.49,30.49,0,0,1,15.65-3.93,37.58,37.58,0,0,1,16.27,3.4l-1.74,3.91A31.51,31.51,0,0,0,36.64,221.25Z" transform="translate(-4.56 -3.25)"/>
      <path d="M102.46,280.35H68.52V218.24h33.94v4H72.85v23.49h28v4h-28v26.63h29.61Z" transform="translate(-4.56 -3.25)"/>
      <path d="M125.2,253.29v27.06h-4.33V218.24h14.78q11.55,0,17.08,4.27t5.52,12.85A16.79,16.79,0,0,1,155,245.89q-3.29,4.29-10,6.16l16.86,28.29h-5.18l-16-27.06Zm0-3.74h11.85q7.86,0,12.19-3.5t4.33-10.34q0-7.09-4.25-10.32t-13.85-3.23H125.2Z" transform="translate(-4.56 -3.25)"/>
      <path d="M193.1,280.35h-4.37v-58H168.55v-4.08h44.73v4.08H193.1Z" transform="translate(-4.56 -3.25)"/>
      <path d="M226.85,280.35V218.24h4.33v62.11Z" transform="translate(-4.56 -3.25)"/>
      <path d="M257.45,280.35h-4.33V218.24h34v4H257.45v26.34h28v4h-28Z" transform="translate(-4.56 -3.25)"/>
      <path d="M301.14,280.35V218.24h4.33v62.11Z" transform="translate(-4.56 -3.25)"/>
      <path d="M353.92,221.25q-11.68,0-18.39,7.48t-6.71,20.48q0,13.29,6.33,20.64t18.1,7.35a49,49,0,0,0,14.36-2V279a46.83,46.83,0,0,1-15.38,2.17q-13.08,0-20.6-8.45t-7.52-23.62a37,37,0,0,1,3.59-16.69A26,26,0,0,1,338,221.28a30.49,30.49,0,0,1,15.65-3.93,37.58,37.58,0,0,1,16.27,3.4l-1.74,3.91A31.51,31.51,0,0,0,353.92,221.25Z" transform="translate(-4.56 -3.25)"/>
      <path d="M415.7,258.43H390.47l-8.67,21.92H377L402,218h2.76l24.47,62.36h-4.89ZM392,254.52h22.22l-8.45-22.39q-1.06-2.63-2.55-7.31a68.15,68.15,0,0,1-2.51,7.39Z" transform="translate(-4.56 -3.25)"/>
      <path d="M458.54,280.35h-4.37v-58H434v-4.08h44.73v4.08H458.54Z" transform="translate(-4.56 -3.25)"/>
      <path d="M526.22,280.35H492.28V218.24h33.94v4H496.62v23.49h28v4h-28v26.63h29.61Z" transform="translate(-4.56 -3.25)"/>
    </g>
  </g>
</svg>
