<svg xmlns="http://www.w3.org/2000/svg" viewBox="0 0 583.59 269.91" role="img" aria-label="{% firstof site.name platform_name %}">
  <title class="edx-logo-title">{% firstof site.name platform_name %}</title>
  <path class="edx-e" d="M208.67,150.48a107.36,107.36,0,0,0-2.3-10.62,60.16,60.16,0,0,0-4.4,10.62,61.34,61.34,0,0,0-.3,34.84h7.16a111,111,0,0,0-.16-34.84ZM108,63.87A104.55,104.55,0,0,0,5,150.48H49.17a61,61,0,0,1,58.33-43.09,58.84,58.84,0,0,1,52.76,32.31,104.29,104.29,0,0,1,23.48-41.93A100.35,100.35,0,0,0,108,63.87Zm44.21,145.19a58.59,58.59,0,0,1-44.71,20.36,61,61,0,0,1-58.63-44.09H157.64a105.56,105.56,0,0,1,.17-34.84H5a105.56,105.56,0,0,0-.17,34.84h0A104.56,104.56,0,0,0,108,272.93,100.35,100.35,0,0,0,183.75,239a104.5,104.5,0,0,1-19.28-30Z" transform="translate(-3.47 -3.04)"/>
  <path class="edx-e-d-overlap" d="M164.47,209.06H202.3a103.67,103.67,0,0,1-18.55,30,104.5,104.5,0,0,1-19.28-30" transform="translate(-3.47 -3.04)"/>
  <path class="edx-e-d-overlap" d="M183.75,97.77a104.3,104.3,0,0,0-23.48,41.93,61.47,61.47,0,0,1,4.29,10.78H202a60.16,60.16,0,0,1,4.4-10.62A104.39,104.39,0,0,0,183.75,97.77Zm-19.19,52.71a64.26,64.26,0,0,1,.28,34.84h36.83a61.34,61.34,0,0,1,.3-34.84Zm0,0h-6.75a105.56,105.56,0,0,0-.17,34.84h7.2a64.27,64.27,0,0,0-.28-34.84Z" transform="translate(-3.47 -3.04)"/>
  <path class="edx-d" d="M358.78,45.88H335.48V3.14h-44V45.88h28.42V82.73a100.53,100.53,0,0,0-59.1-18.86,104.24,104.24,0,0,0-77.06,33.9,104.38,104.38,0,0,1,22.62,42.09,61,61,0,0,1,53.94-32.47c33.7,0,59.61,27.32,59.61,61v.33c-.17,33.54-26,60.68-59.61,60.68a61,61,0,0,1-53.94-32.47h0a60.54,60.54,0,0,1-4.7-11.62h-44a104.18,104.18,0,0,0,6.83,23.73H202.3a103.67,103.67,0,0,1-18.55,30,104.24,104.24,0,0,0,77.06,33.9,100.44,100.44,0,0,0,74.68-32.71V229.15H356l6.92-8.54V51ZM319.91,254.08V273h15.58V240.22A101.37,101.37,0,0,1,319.91,254.08ZM160.27,139.7a101.58,101.58,0,0,0-2.46,10.78h6.75A61.48,61.48,0,0,0,160.27,139.7Z" transform="translate(-3.47 -3.04)"/>
  <polygon class="edx-d-x-overlap" points="332.01 0.09 332.01 42.84 355.31 42.84 359.46 47.95 359.46 0.09 332.01 0.09"/>
  <polygon class="edx-d-x-overlap" points="359.46 226.1 359.46 217.57 352.54 226.1 332.01 226.1 332.01 269.91 392.25 269.91 392.25 226.1 359.46 226.1"/>
  <polygon class="edx-x" points="583.41 42.84 583.41 0.09 476.88 0.09 476.88 42.84 501.09 42.84 457.93 96.08 414.73 42.84 439.05 42.84 439.05 0.09 359.46 0.09 359.46 47.95 428.24 132.72 359.46 217.57 359.46 226.1 392.25 226.1 392.25 269.91 439.05 269.91 439.05 226.1 411.96 226.1 457.96 169.35 457.97 169.35 504.02 226.1 476.88 226.1 476.88 269.91 583.41 269.91 583.41 226.1 563.43 226.1 487.66 132.72 560.51 42.84 583.41 42.84"/>
</svg>
