<svg class="watermark-svg" xmlns="http://www.w3.org/2000/svg" viewBox="0 0 1847.86 2677.65" role="img" aria-hidden="true">
  <g class="micromasters-watermark">
    <path d="M1558.23,2613.45l-591.14-560L376,2613.45V1678.37q-24.17-20.17-46.93-41.92v1086.1l638.07-604.47,638.07,604.47V1636.45q-22.74,21.74-46.93,41.92Z" transform="translate(-43.16 -44.9)"/>
    <path d="M376,1647.55v30.82c160.32,133.79,366.49,214.4,591.14,214.4s430.82-80.6,591.14-214.4v-30.82c-158.28,138-365.11,221.75-591.14,221.75S534.24,1785.58,376,1647.55Z" transform="translate(-43.16 -44.9)"/>
    <path d="M1891,968.83C1891,459.37,1476.55,44.9,967.09,44.9S43.16,459.37,43.16,968.83c0,262.23,109.81,499.29,285.86,667.62V1603.6c-162.08-162.92-262.4-387.35-262.4-634.77,0-496.52,403.94-900.47,900.47-900.47s900.47,403.94,900.47,900.47c0,247.42-100.31,471.85-262.4,634.77v32.85C1781.21,1468.12,1891,1231.06,1891,968.83Z" transform="translate(-43.16 -44.9)"/>
    <path d="M1558.23,1647.55v30.82q24.17-20.17,46.93-41.92V1603.6Q1582.49,1626.39,1558.23,1647.55Z" transform="translate(-43.16 -44.9)"/>
    <path d="M376,1647.55q-24.24-21.14-46.93-43.94v32.85q22.74,21.74,46.93,41.92Z" transform="translate(-43.16 -44.9)"/>
    <g>
      <path d="M967.09,1814.86c-466.5,0-846-379.53-846-846s379.53-846,846-846,846,379.53,846,846S1433.6,1814.86,967.09,1814.86Zm0-1645.13C526.46,169.73,168,528.2,168,968.83s358.47,799.1,799.1,799.1,799.1-358.47,799.1-799.1S1407.72,169.73,967.09,169.73Z" transform="translate(-43.16 -44.9)"/>
      <rect x="381.8" y="1352.69" width="1187.67" height="35.65" transform="translate(-45.17 -43.47) rotate(-0.08)"/>
      <rect x="381.8" y="853.64" width="1187.67" height="35.65" transform="translate(-44.44 -43.47) rotate(-0.08)"/>
      <polygon points="605.58 1222.54 376.16 993.02 376.16 1212.15 340.51 1212.15 340.51 906.94 605.58 1172.12 870.64 906.94 870.64 1212.15 835 1212.15 835 993.02 605.58 1222.54"/>
      <polygon points="1242.76 1222.54 1013.34 993.02 1013.34 1212.15 977.69 1212.15 977.69 906.94 1242.76 1172.12 1507.82 906.94 1507.82 1212.15 1472.17 1212.15 1472.17 993.02 1242.76 1222.54"/>
      <path d="M436.25,763.6a545.67,545.67,0,0,1,99.39-197c19.24,6,58.74,17.37,114.52,28.56a531.35,531.35,0,0,0-63,168.46h36.39a497.43,497.43,0,0,1,63.91-161.49A1639.88,1639.88,0,0,0,960.62,626V763.6h35.65V625.75a1649.58,1649.58,0,0,0,265.58-26.09A496.28,496.28,0,0,1,1326.5,763.6h36.39a529.26,529.26,0,0,0-64-171.05q53.71-11,109.34-26.52a545.56,545.56,0,0,1,99.87,197.57h37c-66-260.32-301.24-441.94-572.94-441.94S465.27,503.25,399.25,763.6Zm946.39-227.47q-52.87,14.15-104,24.15c-66.78-97.56-155.41-160.25-219.33-196.16A555.53,555.53,0,0,1,1382.64,536.13ZM996.27,371.73c52.85,24.2,162.88,84.57,243.74,195.62a1615.45,1615.45,0,0,1-243.74,22.83ZM960.62,590.42a1605.7,1605.7,0,0,1-251.56-20.7C793.79,452.6,911,390.87,960.62,368.66ZM893.23,362.92C828.91,399,738.17,463,670.33,562.86c-49.14-9.39-86.44-19.18-109.42-25.87A555.43,555.43,0,0,1,893.23,362.92Z" transform="translate(-43.16 -44.9)"/>
    </g>
  </g>
</svg>
