<svg class="watermark-svg" xmlns="http://www.w3.org/2000/svg" viewBox="0 0 887.64 917.57" role="img" aria-hidden="true">
  <g class="xseries-watermark">
    <path d="M264.11,506.77l-18-29-17.29,29H205.18l28.76-43.38L207.5,424.64h23.9l15.3,25.52,15.09-25.52h23.07l-26,38.74,29.7,43.38Z" transform="translate(-31.22 -16.13)"/>
    <path d="M351.11,446a18,18,0,0,0-6.68-5.16,18.82,18.82,0,0,0-7.95-1.91,23.84,23.84,0,0,0-4,.35,10.27,10.27,0,0,0-3.65,1.34,9,9,0,0,0-2.74,2.55,6.81,6.81,0,0,0-1.1,4,6.5,6.5,0,0,0,.87,3.48,7.67,7.67,0,0,0,2.55,2.44,22.71,22.71,0,0,0,4,1.91q2.33.88,5.23,1.8,4.17,1.39,8.69,3.08a32.7,32.7,0,0,1,8.24,4.46,23.47,23.47,0,0,1,6.14,6.9,19.87,19.87,0,0,1,2.44,10.27,26.83,26.83,0,0,1-2.61,12.24,24.48,24.48,0,0,1-7,8.52,30,30,0,0,1-10.09,5,42.37,42.37,0,0,1-11.72,1.63,48.32,48.32,0,0,1-17-3.08A36.22,36.22,0,0,1,301,497l13-13.23a23.82,23.82,0,0,0,7.95,6.21,21.52,21.52,0,0,0,9.8,2.49A19.84,19.84,0,0,0,336,492a10.87,10.87,0,0,0,3.65-1.51,7.5,7.5,0,0,0,2.49-2.78,8.7,8.7,0,0,0,.93-4.18,6.65,6.65,0,0,0-1.16-3.94,11.43,11.43,0,0,0-3.31-3,26.74,26.74,0,0,0-5.33-2.43c-2.13-.73-4.55-1.52-7.25-2.38a68.6,68.6,0,0,1-7.71-3,25.92,25.92,0,0,1-6.74-4.47,20.6,20.6,0,0,1-4.75-6.61,22.33,22.33,0,0,1-1.81-9.45,23.26,23.26,0,0,1,2.79-11.72,24.23,24.23,0,0,1,7.3-8A31.55,31.55,0,0,1,325.35,424a46.33,46.33,0,0,1,11.49-1.45A42.62,42.62,0,0,1,351,425.11a36.51,36.51,0,0,1,12.7,7.54Z" transform="translate(-31.22 -16.13)"/>
    <path d="M387.88,506.77V424.64h55.21v16.7H407v15.54h34.11v15.89H407v17.05h38.16v16.94Z" transform="translate(-31.22 -16.13)"/>
    <path d="M513.85,506.77,496,474.18h-6.76v32.59H469.89V424.64h31.32a54.14,54.14,0,0,1,11.54,1.22A30,30,0,0,1,522.84,430a21.6,21.6,0,0,1,7.13,7.66,24,24,0,0,1,2.67,11.83,21.82,21.82,0,0,1-4.51,14,24.71,24.71,0,0,1-12.53,8.12L537,506.77Zm-.81-57a8.21,8.21,0,0,0-1.23-4.7,8.44,8.44,0,0,0-3.15-2.78,13.73,13.73,0,0,0-4.31-1.33,31.8,31.8,0,0,0-4.6-.35H489.14v19.14h9.45a32.3,32.3,0,0,0,5-.41,15.84,15.84,0,0,0,4.65-1.45,8.41,8.41,0,0,0,4.78-8.12Z" transform="translate(-31.22 -16.13)"/>
    <path d="M558.39,506.77V424.64h20v82.13Z" transform="translate(-31.22 -16.13)"/>
    <path d="M606.88,506.77V424.64h55.21v16.7H626v15.54h34.11v15.89H626v17.05h38.17v16.94Z" transform="translate(-31.22 -16.13)"/>
    <path d="M732.27,446a18,18,0,0,0-6.67-5.16,18.76,18.76,0,0,0-7.95-1.91,23.75,23.75,0,0,0-4,.35A10.25,10.25,0,0,0,710,440.6a9.13,9.13,0,0,0-2.73,2.55,6.81,6.81,0,0,0-1.1,4,6.52,6.52,0,0,0,.86,3.48,7.74,7.74,0,0,0,2.56,2.44,22.61,22.61,0,0,0,4,1.91q2.33.88,5.23,1.8,4.18,1.39,8.7,3.08a32.74,32.74,0,0,1,8.24,4.46,23.7,23.7,0,0,1,6.14,6.9,19.9,19.9,0,0,1,2.43,10.27,26.92,26.92,0,0,1-2.6,12.24,24.61,24.61,0,0,1-7,8.52,30.18,30.18,0,0,1-10.09,5,42.43,42.43,0,0,1-11.72,1.63,48.35,48.35,0,0,1-17.06-3.08A36.13,36.13,0,0,1,682.15,497l13-13.23a23.9,23.9,0,0,0,7.95,6.21,21.55,21.55,0,0,0,9.8,2.49,19.79,19.79,0,0,0,4.29-.46,10.72,10.72,0,0,0,3.64-1.51,7.61,7.61,0,0,0,2.5-2.78,8.8,8.8,0,0,0,.93-4.18,6.59,6.59,0,0,0-1.17-3.94,11.29,11.29,0,0,0-3.3-3,27.17,27.17,0,0,0-5.34-2.43q-3.19-1.1-7.25-2.38a69,69,0,0,1-7.7-3,25.91,25.91,0,0,1-6.74-4.47,20.67,20.67,0,0,1-4.75-6.61,22.36,22.36,0,0,1-1.8-9.45A23.35,23.35,0,0,1,689,436.59a24.37,24.37,0,0,1,7.31-8,31.53,31.53,0,0,1,10.2-4.58A46.39,46.39,0,0,1,718,422.56a42.67,42.67,0,0,1,14.22,2.55,36.58,36.58,0,0,1,12.7,7.54Z" transform="translate(-31.22 -16.13)"/>
    <path d="M475,933.71a428.68,428.68,0,0,1-172.91-36.12A441.81,441.81,0,0,1,161,799.17,458.41,458.41,0,0,1,66,653.36a474.62,474.62,0,0,1,0-356.87,458.41,458.41,0,0,1,95-145.81A441.81,441.81,0,0,1,302.12,52.26a431.9,431.9,0,0,1,345.83,0A441.81,441.81,0,0,1,789,150.67a458.4,458.4,0,0,1,95,145.81,474.6,474.6,0,0,1,0,356.87,458.39,458.39,0,0,1-95,145.81A441.8,441.8,0,0,1,648,897.58,428.7,428.7,0,0,1,475,933.71Zm0-890.8A402.06,402.06,0,0,0,312.86,76.78,415.17,415.17,0,0,0,180.3,169.27,431.75,431.75,0,0,0,90.82,306.61a447.85,447.85,0,0,0,0,336.62A431.74,431.74,0,0,0,180.3,780.57a415.17,415.17,0,0,0,132.56,92.49,405.14,405.14,0,0,0,324.36,0,415.17,415.17,0,0,0,132.56-92.49,431.74,431.74,0,0,0,89.48-137.34,447.85,447.85,0,0,0,0-336.62,431.75,431.75,0,0,0-89.48-137.34A415.17,415.17,0,0,0,637.22,76.78,402.08,402.08,0,0,0,475,42.9Z" transform="translate(-31.22 -16.13)"/>
    <polygon points="699.78 372.53 526.67 372.53 600.32 272.49 649.34 272.49 649.34 232.82 490.63 232.82 490.63 272.49 545.45 272.49 471.82 372.53 413.93 372.53 340.28 272.49 395.11 272.49 395.11 232.82 236.4 232.82 236.4 272.49 285.42 272.49 359.07 372.53 192.45 372.53 192.45 381.2 699.78 381.2 699.78 372.53"/>
    <polygon points="700.28 517.03 192.78 517.03 192.78 525.7 359.09 525.7 279.77 633.4 228.73 633.4 228.73 673.08 387.42 673.08 387.42 633.4 334.63 633.4 413.96 525.7 471.73 525.7 551.12 633.4 498.31 633.4 498.31 673.08 657.01 673.08 657.01 633.4 605.97 633.4 526.58 525.7 700.28 525.7 700.28 517.03"/>
    <path d="M851.72,395.74a38.87,38.87,0,0,0-33.44-38.43q-4.42-13.7-9.88-27.11a371.79,371.79,0,0,0-77.05-118.26A358.24,358.24,0,0,0,617,132.14a346.93,346.93,0,0,0-103.28-27.36,38.81,38.81,0,0,0-73.86,0A347,347,0,0,0,336.6,132.14a358.26,358.26,0,0,0-114.39,79.8A371.79,371.79,0,0,0,145.15,330.2q-5.41,13.23-9.76,26.77a38.8,38.8,0,0,0-15.9,73.3,388.4,388.4,0,0,0-2.58,44.65,380.62,380.62,0,0,0,28.24,144.73A371.76,371.76,0,0,0,222.21,737.9c.54.56,1.1,1.1,1.64,1.65a38.79,38.79,0,0,0,59.42,49.11,354.8,354.8,0,0,0,53.33,29,350.14,350.14,0,0,0,280.36,0,354.66,354.66,0,0,0,50.44-27.14,38.79,38.79,0,0,0,59.19-47.84q2.4-2.38,4.76-4.82A371.77,371.77,0,0,0,808.4,619.65a380.63,380.63,0,0,0,28.24-144.73,388.71,388.71,0,0,0-2.79-46.53A38.81,38.81,0,0,0,851.72,395.74Zm-375-304.46a25.43,25.43,0,1,1-25.43,25.43A25.46,25.46,0,0,1,476.75,91.28Zm-365,304.46a25.43,25.43,0,1,1,25.42,25.43A25.45,25.45,0,0,1,111.76,395.74ZM256.32,786.18a25.43,25.43,0,1,1,25.45-25.44A25.45,25.45,0,0,1,256.32,786.18Zm435.91,0a25.43,25.43,0,1,1,25.44-25.44A25.46,25.46,0,0,1,692.23,786.18Zm26.29-60.68c-1.22,1.26-2.44,2.5-3.68,3.73a38.79,38.79,0,0,0-58.16,47.07,332.74,332.74,0,0,1-363.76-2.56,38.8,38.8,0,0,0-56.16-46.49L235,725.5C170.37,658.59,134.76,569.6,134.76,474.92A371.66,371.66,0,0,1,137,434.55h.21A38.8,38.8,0,0,0,153,360.31a354.85,354.85,0,0,1,82-136c55.46-57.39,126.6-92.61,203.4-101.43a38.81,38.81,0,0,0,76.63,0c76.82,8.81,148,44,203.45,101.44a354.85,354.85,0,0,1,81.63,134.74,38.81,38.81,0,0,0,12.75,75.47c1.24,0,2.46-.06,3.67-.18a371.63,371.63,0,0,1,2.23,40.55C818.79,569.59,783.18,658.59,718.52,725.5ZM812.9,421.17a25.43,25.43,0,1,1,25.43-25.43A25.46,25.46,0,0,1,812.9,421.17Z" transform="translate(-31.22 -16.13)"/>
  </g>
</svg>
