<svg class="watermark-svg" xmlns="http://www.w3.org/2000/svg" viewBox="0 0 4300 4301" role="img" aria-hidden="true">
  <g class="professional-certificate-watermark">
    <path d="M2297.52,4448.56a2165.1,2165.1,0,0,1-433.25-43.69,2138.26,2138.26,0,0,1-768.87-323.61,2156.57,2156.57,0,0,1-778.9-946.11,2140.41,2140.41,0,0,1-125.3-403.74,2171.47,2171.47,0,0,1,0-866.69,2139.25,2139.25,0,0,1,323.53-769.05,2156.19,2156.19,0,0,1,945.89-779.08,2139.15,2139.15,0,0,1,403.65-125.33,2170,2170,0,0,1,866.5,0,2138.26,2138.26,0,0,1,768.88,323.61A2156.57,2156.57,0,0,1,4278.55,1461a2140.37,2140.37,0,0,1,125.3,403.74,2171.45,2171.45,0,0,1,0,866.69,2139.25,2139.25,0,0,1-323.53,769,2156.18,2156.18,0,0,1-945.89,779.08,2139.12,2139.12,0,0,1-403.65,125.33A2165.09,2165.09,0,0,1,2297.52,4448.56Zm0-4201a2064.92,2064.92,0,0,0-413.2,41.66,2038.23,2038.23,0,0,0-732.94,308.5,2056.58,2056.58,0,0,0-742.78,902.2,2040.19,2040.19,0,0,0-119.43,384.83,2071.48,2071.48,0,0,0,0,826.61A2039.25,2039.25,0,0,0,597.6,3444.49a2056.21,2056.21,0,0,0,902,743,2038.93,2038.93,0,0,0,384.74,119.46,2070,2070,0,0,0,826.39,0,2038.22,2038.22,0,0,0,732.94-308.5,2056.56,2056.56,0,0,0,742.78-902.2,2040.17,2040.17,0,0,0,119.43-384.83,2071.46,2071.46,0,0,0,0-826.61,2039.23,2039.23,0,0,0-308.43-733.12,2056.2,2056.2,0,0,0-902-743,2039,2039,0,0,0-384.74-119.46A2064.91,2064.91,0,0,0,2297.52,247.56Z" transform="translate(-147.52 -147.56)"/>
    <path d="M4210.08,2310.85c-1.62-50.47-14.46-92.87-30.87-107.73l-.81-.8-.73-.58a19,19,0,0,0-2.84-1.9v0l-.08,0a15.84,15.84,0,0,0-3.09-1.36l-.89-.36-1.06-.28c-21.28-6.15-64.09,5.18-107.87,30.32-55,31.57-90.57,72.81-79.52,92.12a15.71,15.71,0,0,0,6.09,5.86v0c18.44,10.61,65.47-.43,113.56-28a323.05,323.05,0,0,0,28.19-18.2,323.73,323.73,0,0,0-.73,33.54c1.79,55.42,17.06,101.21,35.74,111.36l.08,0a16.33,16.33,0,0,0,8.2,2.06c22.26-.71,38.67-52.67,36.64-116Zm-80.34,199-.81-.79-.81-.59a17.27,17.27,0,0,0-2.76-1.93,19.94,19.94,0,0,0-3.17-1.4l-.89-.35-1.14-.29c-21.2-6.15-64,5.19-107.79,30.33-55,31.57-90.57,72.8-79.52,92.11s64.66,9.43,119.65-22.13a333.94,333.94,0,0,0,28.19-18.21,323.72,323.72,0,0,0-.73,33.55c1.79,55.46,17.06,101.28,35.82,111.37v0a16.32,16.32,0,0,0,8.2,2.06c22.26-.71,38.67-52.65,36.64-116-1.62-50.48-14.46-92.87-30.87-107.74ZM4092.62,2833l-.57-.79a16.73,16.73,0,0,0-2.11-2.73,19.91,19.91,0,0,0-2.44-2.27l-.81-.63-1-.62c-18.28-12.49-62.47-15.06-111.94-4.84-62.07,12.81-108.78,40.88-104.25,62.7a15.89,15.89,0,0,0,3.92,7.49c14.19,15.85,62.32,20,116.66,8.79a319.17,319.17,0,0,0,32.41-8.47,310.55,310.55,0,0,0-11,31.64c-15.6,53.2-15.43,101.43-.89,116.94l.08.07a15.88,15.88,0,0,0,7.15,4.51c21.36,6.27,53.21-38,71-98.81,14.22-48.45,15.27-92.74,4.39-112l-.57-1ZM3949.9,3109l-.57-.8a15.88,15.88,0,0,0-2.11-2.7,14.74,14.74,0,0,0-2.52-2.31l-.73-.62-1-.6c-18.28-12.5-62.47-15.07-111.92-4.86-62.11,12.83-108.78,40.91-104.3,62.7a16.14,16.14,0,0,0,3.91,7.43l.11.13c14.29,15.78,62.32,20,116.56,8.74a313.23,313.23,0,0,0,32.47-8.5,316,316,0,0,0-11.13,31.66c-17.85,60.84-15,115.24,6.39,121.51s53.13-38,71-98.79c14.22-48.45,15.27-92.74,4.31-112l-.49-1Zm-149.68,285.54-.29-.94a15.93,15.93,0,0,0-1.15-3.19,19.46,19.46,0,0,0-1.71-3l-.54-.81-.72-.89c-13.64-17.45-55-33.3-105.19-38.55-63.07-6.65-116,6-118.37,28.11a16,16,0,0,0,1.46,8.33v0c8.74,19.4,53.31,38,108.47,43.77a319.47,319.47,0,0,0,33.51,1.74,307.9,307.9,0,0,0-20.17,26.78c-35.48,52.57-49.27,105.27-30.79,117.73s62.17-20,97.62-72.59c28.26-41.87,42.66-83.76,38.08-105.39l-.21-1.14Zm-219.69,219.72-.31-.93a18.67,18.67,0,0,0-1.11-3.15l0,0,0,0a20.47,20.47,0,0,0-1.69-2.93l-.52-.8-.75-.89c-13.61-17.44-55-33.3-105.19-38.56-63.07-6.62-116.05,6-118.38,28.13s46.9,45.47,110,52.09a318.84,318.84,0,0,0,33.48,1.75,316.36,316.36,0,0,0-20.19,26.8c-31,45.93-45.42,91.94-36.23,111.15l.06.14a16.11,16.11,0,0,0,5.39,6.43c18.46,12.46,62.17-20.06,97.63-72.6,28.26-41.89,42.66-83.76,38.08-105.4l-.19-1.15Zm-240.53,207v0a19,19,0,0,0-.71-3.3l-.27-1-.44-1c-7.7-20.77-42.29-48.42-88.54-68.69-58.09-25.41-112.4-29.48-121.33-9.1a16,16,0,0,0-1.11,8.4c2.43,21.13,39.28,52.34,90.09,74.61a314.53,314.53,0,0,0,31.4,11.84,312.12,312.12,0,0,0-27.37,19.4c-49.74,39.32-78.84,85.37-65,102.85s65.31-.24,115-39.57c39.62-31.34,66.06-66.89,68.22-88.92l.17-1.11,0-1a20.8,20.8,0,0,0-.15-3.39v0ZM3063.28,3960.7l-.26-.93-.45-1.08c-7.68-20.74-42.26-48.4-88.53-68.64-58.08-25.45-112.4-29.52-121.32-9.09s30.89,57.54,89,83a302.92,302.92,0,0,0,31.4,11.84,310.36,310.36,0,0,0-27.37,19.44c-49.74,39.31-78.84,85.35-65,102.81s65.31-.24,115-39.57c39.61-31.31,66-66.85,68.23-88.86l.16-1.12v-1a19.15,19.15,0,0,0-.12-3.4,18.82,18.82,0,0,0-.75-3.35Zm-359.46,16.21c-47.24-42.26-97.58-63.12-112.42-46.5s11.37,64.32,58.63,106.62a312.68,312.68,0,0,0,26.13,21,316.44,316.44,0,0,0-32.05,9.91c-52.05,19.1-90.72,48-94.48,68.95v0a15.94,15.94,0,0,0,.61,8.42c7.68,20.89,62.13,20.15,121.67-1.7,47.4-17.4,83.6-42.89,92.55-63.14l.5-1,.31-.93a17.94,17.94,0,0,0,.93-3.31,16,16,0,0,0,.35-3.39l.06-1-.08-1.13c-.85-22.12-25.07-59.21-62.71-92.88Zm-306.76,49.46c-47.24-42.27-97.57-63.08-112.42-46.49a16.1,16.1,0,0,0-3.69,7.6v0c-4.26,20.84,21,62,62.32,99a323.14,323.14,0,0,0,26.14,21.06,309.3,309.3,0,0,0-32.05,9.88c-52.09,19.1-90.76,48-94.47,69a15.86,15.86,0,0,0,.59,8.42c7.68,20.91,62.14,20.16,121.66-1.7,47.41-17.4,83.62-42.91,92.56-63.14l.5-1,.32-.93a20.63,20.63,0,0,0,.93-3.27,18.21,18.21,0,0,0,.35-3.4l.06-1-.09-1.12c-.85-22.13-25.08-59.19-62.72-92.89Zm-375.71-93.1c-19.32,11.08-9.41,64.65,22.14,119.63a310.23,310.23,0,0,0,18.2,28.2,313.32,313.32,0,0,0-33.55-.68c-55.43,1.76-101.25,17.07-111.37,35.77h0a16.05,16.05,0,0,0-2.07,8.2c.7,22.26,52.66,38.68,116,36.65,50.47-1.6,92.87-14.43,107.7-30.84l.81-.81.6-.78a20.74,20.74,0,0,0,1.91-2.83,18.15,18.15,0,0,0,1.39-3.12l.35-.91.28-1.13c6.18-21.26-5.17-64.06-30.32-107.85-31.56-55-72.8-90.59-92.11-79.5ZM1714.6,3883.8a16.07,16.07,0,0,0-5.89,6.06c-10.63,18.42.42,65.46,28,113.59a318.44,318.44,0,0,0,18.2,28.17,313.17,313.17,0,0,0-33.55-.68c-55.34,1.76-101.09,17-111.31,35.69l-.08.16a15.9,15.9,0,0,0-2,8.11c.69,22.27,52.65,38.68,116,36.67,50.49-1.62,92.88-14.44,107.72-30.85l.8-.83.59-.76a21.06,21.06,0,0,0,1.92-2.83,19.23,19.23,0,0,0,1.41-3.11l.34-.92.29-1.1c6.17-21.28-5.2-64.07-30.34-107.88-31.54-55-72.78-90.58-92.09-79.49Zm-232.35-137.43a16,16,0,0,0-7.46,3.92l-.07,0c-15.81,14.27-20,62.34-8.76,116.63a313.27,313.27,0,0,0,8.5,32.47,310.26,310.26,0,0,0-31.66-11.12c-53.21-15.62-101.48-15.39-116.95-.8l0,0a16.05,16.05,0,0,0-4.52,7.12c-6.28,21.36,38,53.17,98.79,71,48.45,14.22,92.73,15.26,112,4.31l1-.51.8-.56a19.41,19.41,0,0,0,2.68-2.06l0,0,0,0a18.55,18.55,0,0,0,2.27-2.49l.63-.75.61-1c12.49-18.29,15.06-62.49,4.87-112-12.83-62.1-40.91-108.79-62.71-104.29Zm-227-138.73a16.1,16.1,0,0,0-8.29,1.46l-.11,0c-19.36,8.81-37.9,53.31-43.69,108.46a310.62,310.62,0,0,0-1.75,33.51,314.27,314.27,0,0,0-26.81-20.17c-46-31-92.05-45.46-111.21-36.25l0,0a16.13,16.13,0,0,0-6.47,5.42c-12.45,18.48,20,62.2,72.6,97.66,41.87,28.24,83.76,42.69,105.38,38.08l1.13-.21.94-.28a17.07,17.07,0,0,0,3.2-1.16,17.31,17.31,0,0,0,3-1.71l.81-.54.88-.75c17.44-13.61,33.3-55,38.58-105.18,6.61-63.08-6-116.06-28.13-118.39Zm-219.71-219.75a16.06,16.06,0,0,0-8.33,1.48l0,0c-19.38,8.76-38,53.34-43.73,108.5a312.73,312.73,0,0,0-1.75,33.52,309.56,309.56,0,0,0-26.79-20.22c-45.94-31-92-45.43-111.17-36.24l-.09,0a16.06,16.06,0,0,0-6.45,5.42c-12.45,18.46,20,62.18,72.6,97.67,41.86,28.24,83.74,42.65,105.38,38l1.12-.17.93-.29a21.55,21.55,0,0,0,3.22-1.16,19.76,19.76,0,0,0,2.95-1.72l.83-.52.88-.74c17.43-13.63,33.3-55,38.58-105.19,6.6-63.07-6-116.1-28.13-118.43Zm-159-212.23a16,16,0,0,0-8.36-1.12h0c-21.12,2.46-52.34,39.31-74.57,90.1a311.56,311.56,0,0,0-11.83,31.4,314.13,314.13,0,0,0-19.41-27.37c-34.37-43.48-73.85-71.15-94.93-68.25l-.15,0a16,16,0,0,0-7.76,3.21c-17.47,13.8.24,65.32,39.57,115.06,31.32,39.62,66.84,66.07,88.87,68.24l1.12.15,1,0a18,18,0,0,0,3.42-.15,19.09,19.09,0,0,0,3.33-.72l.94-.24,1.06-.44c20.76-7.7,48.41-42.3,68.65-88.55,25.43-58.1,29.51-112.43,9.1-121.36ZM655,3110l1.06-.43c20.76-7.71,48.41-42.29,68.66-88.56,25.43-58.09,29.51-112.41,9.09-121.33a15.9,15.9,0,0,0-8.37-1.11h0c-21.12,2.44-52.33,39.28-74.57,90.11A311.65,311.65,0,0,0,639,3020a315.23,315.23,0,0,0-19.41-27.37c-39.33-49.75-85.37-78.85-102.83-65s.24,65.32,39.57,115.06c31.32,39.62,66.84,66.07,88.87,68.23l1.13.17h1a18.65,18.65,0,0,0,3.41-.13,17.24,17.24,0,0,0,3.33-.75l1-.25ZM516.07,2818.19l.93.31a19.63,19.63,0,0,0,3.27,1,22.41,22.41,0,0,0,3.4.33l1,0,1.15-.09c22.11-.84,59.18-25.06,92.86-62.7,42.28-47.25,63.11-97.59,46.5-112.46a15.85,15.85,0,0,0-7.57-3.65l-.11,0c-20.86-4.21-62,21.06-98.92,62.35a315,315,0,0,0-21,26.14,307.59,307.59,0,0,0-9.89-32.05c-19.08-52.05-48-90.73-68.92-94.49h-.08a15.82,15.82,0,0,0-8.39.6c-20.91,7.68-20.16,62.16,1.69,121.68,17.4,47.4,42.9,83.61,63.13,92.56l1,.5Zm-50.52-307.27,1,.5.93.31a19.84,19.84,0,0,0,3.27.93,17.61,17.61,0,0,0,3.4.33l1,0,1.14-.08c22.12-.83,59.18-25,92.87-62.68,42.26-47.26,63.09-97.61,46.49-112.46a16,16,0,0,0-7.6-3.68h0c-20.84-4.29-62,21-99,62.32a320.82,320.82,0,0,0-21,26.14,311.31,311.31,0,0,0-9.88-32.05c-21.83-59.53-56.5-101.55-77.41-93.88s-20.15,62.15,1.69,121.67c17.4,47.42,42.91,83.64,63.14,92.58ZM445,2191.6l.84.8.78.59a17.63,17.63,0,0,0,2.78,1.89l0,0,0,0a19.59,19.59,0,0,0,3.07,1.37l.93.35,1.1.29c21.26,6.15,64.07-5.2,107.87-30.33,55-31.56,90.58-72.79,79.5-92.12s-64.65-9.41-119.65,22.15a315.27,315.27,0,0,0-28.2,18.2,311.11,311.11,0,0,0,.68-33.54c-1.76-55.45-17-101.25-35.73-111.38l0,0a16.06,16.06,0,0,0-8.18-2.06c-22.26.71-38.67,52.65-36.64,116,1.62,50.47,14.43,92.87,30.82,107.73Zm49.49-306.79.84.8.78.58a18.46,18.46,0,0,0,2.76,1.9l0,0,.06,0a17.7,17.7,0,0,0,3.08,1.37l.92.36,1.1.28c21.25,6.15,64.07-5.18,107.87-30.33,55-31.56,90.58-72.79,79.49-92.12s-64.65-9.41-119.65,22.16a314.49,314.49,0,0,0-28.19,18.2,313.1,313.1,0,0,0,.68-33.54c-1.77-55.45-17-101.25-35.75-111.38l0,0a16.15,16.15,0,0,0-8.18-2.07c-22.27.71-38.67,52.66-36.65,116,1.62,50.48,14.44,92.88,30.83,107.73Zm92-305,.57.8a20.44,20.44,0,0,0,2,2.65l.06.06.06.06a19.24,19.24,0,0,0,2.47,2.23l.76.63,1,.61c18.27,12.49,62.49,15.07,111.94,4.86,62.1-12.83,108.78-40.9,104.27-62.73a15.91,15.91,0,0,0-3.92-7.47v0c-14.22-15.82-62.33-20-116.64-8.79a315.33,315.33,0,0,0-32.47,8.49,309.2,309.2,0,0,0,11.13-31.65c17.85-60.85,15-115.25-6.38-121.52s-53.16,38-71,98.8c-14.21,48.46-15.26,92.75-4.31,112l.52,1Zm142.74-276,.55.8a19.55,19.55,0,0,0,2,2.66l.06.06a17.17,17.17,0,0,0,2.49,2.27l.76.63,1,.61c18.26,12.48,62.49,15.05,111.94,4.85,62.08-12.83,108.77-40.91,104.27-62.71a16.08,16.08,0,0,0-3.93-7.48v0c-14.21-15.83-62.33-20-116.63-8.8a314.77,314.77,0,0,0-32.47,8.5,312.85,312.85,0,0,0,11.13-31.66c17.85-60.85,15-115.24-6.38-121.51s-53.16,38-71,98.81c-14.21,48.45-15.25,92.74-4.31,112l.54,1Zm195-252.41.28.94a18.09,18.09,0,0,0,1.16,3.2,18.49,18.49,0,0,0,1.71,3l.53.81.73.89c13.63,17.46,55,33.3,105.19,38.58,63.07,6.6,116.06-6,118.38-28.13s-46.89-45.49-109.95-52.11a316.87,316.87,0,0,0-33.51-1.75A314.42,314.42,0,0,0,1028.94,990c35.46-52.58,49.25-105.27,30.77-117.74s-62.17,20-97.63,72.6c-28.26,41.88-42.66,83.77-38.08,105.4l.22,1.14ZM1352.86,895.8a16,16,0,0,0,1.12-8.37v0c-2.45-21.12-39.28-52.35-90.1-74.59a314,314,0,0,0-31.4-11.84,312.4,312.4,0,0,0,27.37-19.41c49.74-39.32,78.84-85.37,65-102.83s-65.33.25-115.06,39.57c-39.6,31.32-66,66.85-68.24,88.87l-.14,1.15,0,1a17.82,17.82,0,0,0,.14,3.4v0a18.29,18.29,0,0,0,.73,3.32l.27.94.42,1c7.71,20.76,42.28,48.42,88.54,68.67,58.08,25.43,112.41,29.49,121.34,9.09Zm276-142.74a16.17,16.17,0,0,0,1.12-8.37v0c-2.45-21.12-39.28-52.35-90.09-74.59a313.07,313.07,0,0,0-31.41-11.84,311.25,311.25,0,0,0,27.38-19.41c49.73-39.32,78.83-85.37,65-102.84s-65.33.25-115.07,39.57c-39.6,31.33-66,66.86-68.23,88.87l-.15,1.15v1a17.85,17.85,0,0,0,.14,3.4v0a18.86,18.86,0,0,0,.74,3.32l.25,1,.43,1c7.7,20.75,42.29,48.41,88.54,68.67,58.08,25.43,112.41,29.49,121.34,9.09Zm290.43-294.32,0-.11a16,16,0,0,0-.62-8.38c-7.66-20.93-62.13-20.17-121.66,1.68-47.41,17.39-83.61,42.9-92.55,63.13l-.5,1-.32.92a17.68,17.68,0,0,0-.93,3.29,16.91,16.91,0,0,0-.34,3.4l-.06,1,.08,1.14c.84,22.12,25.07,59.18,62.69,92.87,47.26,42.28,97.6,63.11,112.44,46.51a15.94,15.94,0,0,0,3.66-7.58l0-.1c4.22-20.85-21-62-62.34-98.95a310,310,0,0,0-26.14-21,312.66,312.66,0,0,0,32.07-9.9c52-19.09,90.68-48,94.46-68.91Zm184.48-56.28c-47.4,17.39-83.6,42.9-92.55,63.13l-.5,1-.32.93a18.26,18.26,0,0,0-.94,3.28,20.47,20.47,0,0,0-.34,3.4l0,1,.08,1.15c.84,22.11,25.06,59.18,62.7,92.86,47.24,42.29,97.58,63.12,112.42,46.51a16,16,0,0,0,3.69-7.61h0c4.27-20.85-21-62-62.32-99a311.66,311.66,0,0,0-26.14-21,312.73,312.73,0,0,0,32-9.9c52.08-19.1,90.75-48,94.48-68.95v0a15.85,15.85,0,0,0-.61-8.42c-7.65-20.92-62.13-20.16-121.66,1.69Zm448.4,36.25a16.22,16.22,0,0,0,2.06-8.18c-.71-22.26-52.65-38.67-116-36.66-50.48,1.62-92.86,14.44-107.71,30.84l-.8.84-.58.77a19.17,19.17,0,0,0-1.93,2.81,19.54,19.54,0,0,0-1.39,3.13l-.36.93-.28,1.1c-6.16,21.27,5.18,64.07,30.32,107.88,31.56,55,72.79,90.59,92.12,79.5S2457,557,2425.44,502a312.29,312.29,0,0,0-18.21-28.2,311.24,311.24,0,0,0,33.56.71c55.43-1.79,101.24-17.07,111.37-35.77l0,0Zm202.17,232.43a16.05,16.05,0,0,0,5.86-6l0-.08c10.58-18.45-.46-65.45-28-113.53a316.15,316.15,0,0,0-18.2-28.2,313,313,0,0,0,33.55.71c55.43-1.77,101.23-17.06,111.37-35.77l0,0A16,16,0,0,0,2861,480c-.71-22.27-52.64-38.67-116-36.66-50.49,1.62-92.86,14.43-107.73,30.84l-.79.82-.58.78a20.09,20.09,0,0,0-1.87,2.7l-.09.12-.06.13a21.37,21.37,0,0,0-1.31,3l-.37.92-.27,1.1c-6.17,21.26,5.19,64.07,30.34,107.88,31.55,55,72.78,90.58,92.11,79.49ZM3155.79,629a16,16,0,0,0,4.49-7.1c6.28-21.37-38-53.17-98.79-71-48.45-14.22-92.73-15.25-112-4.31l-1,.52-.81.56a17.91,17.91,0,0,0-2.7,2.09,18.86,18.86,0,0,0-2.29,2.52l-.63.77-.6,1c-12.49,18.28-15.06,62.49-4.87,112,12.83,62.1,40.9,108.79,62.72,104.28a16,16,0,0,0,7.47-3.92l0,0c15.81-14.23,20-62.32,8.77-116.63a314.64,314.64,0,0,0-8.49-32.46,316.7,316.7,0,0,0,31.66,11.12c53.19,15.6,101.42,15.38,116.92.8l.09-.08Zm119.53,284a16.23,16.23,0,0,0,7.45-3.91l.07-.07c15.81-14.24,20-62.31,8.77-116.61a314.76,314.76,0,0,0-8.5-32.47A309.21,309.21,0,0,0,3314.77,771c53.19,15.6,101.42,15.39,116.92.81l.1-.09a16,16,0,0,0,4.49-7.1c6.27-21.37-38-53.17-98.79-71-48.45-14.22-92.73-15.25-112-4.32l-1,.53-.79.55a21.31,21.31,0,0,0-2.65,2l-.06,0-.06.06a18.55,18.55,0,0,0-2.23,2.47l-.63.76-.62,1c-12.48,18.28-15,62.48-4.85,111.94,12.83,62.09,40.89,108.79,62.71,104.29Zm193.9,184c22.18,2.31,45.49-46.9,52.1-110a304.82,304.82,0,0,0,1.75-33.52,317.32,317.32,0,0,0,26.78,20.2c52.57,35.46,105.26,49.24,117.71,30.77s-20-62.18-72.57-97.65c-41.88-28.25-83.75-42.66-105.38-38.07l-1.13.2-1,.28a17.87,17.87,0,0,0-3.19,1.15,22.48,22.48,0,0,0-3,1.71l-.8.54-.88.74c-17.44,13.61-33.3,55-38.58,105.19-6.61,63.06,6,116.08,28.11,118.39ZM3689,1316.69a16,16,0,0,0,8.29-1.46l.06,0c19.38-8.78,37.93-53.33,43.73-108.47a308.68,308.68,0,0,0,1.75-33.52,318.12,318.12,0,0,0,26.8,20.2c46,31,92.08,45.45,111.23,36.2h0a16,16,0,0,0,6.48-5.43c12.45-18.46-20.06-62.18-72.6-97.65-41.87-28.24-83.75-42.66-105.38-38.06l-1.12.19-.93.3a18.18,18.18,0,0,0-3.22,1.15,21.66,21.66,0,0,0-3,1.71l-.8.54-.88.73c-17.43,13.63-33.3,55-38.58,105.2-6.61,63.06,6,116.08,28.14,118.39Zm196.82,34.05h-.12a20,20,0,0,0-3.27.73l-.94.26-1.07.45c-20.75,7.69-48.4,42.28-68.64,88.53-25.43,58.1-29.52,112.43-9.09,121.35s57.54-30.91,83-89a305,305,0,0,0,11.84-31.41,310.31,310.31,0,0,0,19.44,27.4c34.42,43.49,73.9,71.22,94.94,68.23h.08a16,16,0,0,0,7.8-3.22c17.46-13.8-.24-65.33-39.56-115.07-31.36-39.62-66.88-66-88.88-68.23l-1.11-.16h-1a20.15,20.15,0,0,0-3.35.13ZM3956.15,1692c-42.28,47.25-63.11,97.61-46.52,112.45s64.31-11.39,106.63-58.64a318.94,318.94,0,0,0,21-26.13,308.43,308.43,0,0,0,9.91,32.05c21.85,59.53,56.46,101.55,77.41,93.87s20.15-62.14-1.71-121.67c-17.38-47.41-43-83.62-63.12-92.56l-1.06-.5-.89-.32a25.55,25.55,0,0,0-3.33-.94,19.41,19.41,0,0,0-3.41-.33l-1-.06-1.14.09c-22.09.84-59.14,25.07-92.85,62.69Zm153,246.16-1-.5-1-.32a18.26,18.26,0,0,0-3.25-.94,18.66,18.66,0,0,0-3.41-.32l-1-.06-1.14.08c-22.1.84-59.14,25.08-92.85,62.69-42.32,47.25-63.12,97.6-46.46,112.45s64.25-11.38,106.58-58.64a320.48,320.48,0,0,0,21-26.13,329,329,0,0,0,9.83,32.06c21.85,59.52,56.54,101.55,77.41,93.87s20.23-62.15-1.62-121.68c-17.38-47.41-42.89-83.62-63.2-92.55Zm0,0" transform="translate(-147.52 -147.56)"/>
    <path d="M3839.56,1981.4a1565.91,1565.91,0,0,0-236.79-562.91,1578,1578,0,0,0-692.25-570.22,1565.6,1565.6,0,0,0-295.43-91.74,1587.86,1587.86,0,0,0-634.13,0,1564.87,1564.87,0,0,0-562.73,236.87,1578.39,1578.39,0,0,0-570,692.47,1566.83,1566.83,0,0,0-91.71,295.52,1589.36,1589.36,0,0,0,0,634.32,1565.92,1565.92,0,0,0,236.79,562.91,1578,1578,0,0,0,692.25,570.22A1565.63,1565.63,0,0,0,1981,3840.58a1587.88,1587.88,0,0,0,634.13,0,1564.9,1564.9,0,0,0,562.73-236.87,1578.38,1578.38,0,0,0,570-692.47,1566.69,1566.69,0,0,0,91.71-295.52,1589.34,1589.34,0,0,0,0-634.32ZM2374.81,1056.45l15.59-15a21.39,21.39,0,0,1,29.45,0l26.53,25.57,84.84-87.61a21.39,21.39,0,0,1,29.45,0l15.59,15a20.34,20.34,0,0,1,.14,29.27l-99.46,102-15.59,15a21.39,21.39,0,0,1-29.45,0l-57.08-54.84a20.34,20.34,0,0,1,0-29.4ZM1870,887.65A1459,1459,0,0,1,2169.54,830H2238v616.56l146-107.39V1735l-247.39-151a16.75,16.75,0,0,0-17.3,0L1870,1735.06ZM2417,3539.17l27.71-27.73,216.17,216.18q-22.32,5.66-44.81,10.61Zm-423.93,201.9q-22.67-4.77-45.18-10.26l219.35-219.36,27.73,27.73ZM3655.75,2872.3a1474.9,1474.9,0,0,1-961.86,846.54l-249.14-249.11-48.55,48.59L2306,3428.15l-90.15,90.17-48.59-48.59-252.57,252.55a1468.79,1468.79,0,0,1-440.5-201.43A1478.4,1478.4,0,0,1,940.3,2872.3c-76.82-181.69-115.78-374.72-115.78-573.74s39-392,115.78-573.74a1478.11,1478.11,0,0,1,784.19-784.45q55.42-23.45,112.2-42.18v866.44a16.65,16.65,0,0,0,25.28,14.22l265.9-161.17,264.06,161.14a16.64,16.64,0,0,0,25.33-14.18v-449.9l47-34.56,224.83,166.44V876.94a1469,1469,0,0,1,432.75,199.32,1478.38,1478.38,0,0,1,533.92,648.56c76.82,181.69,115.78,374.72,115.78,573.74S3732.57,2690.61,3655.75,2872.3Z" transform="translate(-147.52 -147.56)"/>
  </g>
</svg>