<svg xmlns="http://www.w3.org/2000/svg" viewBox="0 0 485.63 35.4" role="img" aria-label="Certificado de logro">
  <title class="example-logo-title">Certificado de logro</title>
    <g>
      <path d="M4706.55,4804.84q-6.18,0-9.73,4t-3.55,10.83q0,7,3.35,10.92t9.57,3.89a25.91,25.91,0,0,0,7.59-1.06v2a24.77,24.77,0,0,1-8.13,1.15q-6.92,0-10.89-4.47t-4-12.49a19.58,19.58,0,0,1,1.9-8.83,13.74,13.74,0,0,1,5.46-5.9,16.12,16.12,0,0,1,8.28-2.08,19.87,19.87,0,0,1,8.6,1.8l-.92,2.07A16.66,16.66,0,0,0,4706.55,4804.84Z" transform="translate(-4690.78 -4801.13)"/>
      <path d="M4739,4836.08H4721.1v-32.84H4739v2.11h-15.66v12.42h14.78v2.11h-14.78V4834H4739Z" transform="translate(-4690.78 -4801.13)"/>
      <path d="M4747.85,4821.77v14.31h-2.29v-32.84h7.82q6.11,0,9,2.26t2.92,6.79a8.88,8.88,0,0,1-1.74,5.57,9.68,9.68,0,0,1-5.29,3.26l8.92,15h-2.74l-8.47-14.31Zm0-2h6.27a10,10,0,0,0,6.45-1.85,6.62,6.62,0,0,0,2.29-5.47q0-3.75-2.25-5.46t-7.32-1.71h-5.44Z" transform="translate(-4690.78 -4801.13)"/>
      <path d="M4781.45,4836.08h-2.31V4805.4h-10.67v-2.16h23.65v2.16h-10.67Z" transform="translate(-4690.78 -4801.13)"/>
      <path d="M4798.38,4836.08v-32.84h2.29v32.84Z" transform="translate(-4690.78 -4801.13)"/>
      <path d="M4810,4836.08h-2.29v-32.84h18v2.11H4810v13.93h14.82v2.13H4810Z" transform="translate(-4690.78 -4801.13)"/>
      <path d="M4831.22,4836.08v-32.84h2.29v32.84Z" transform="translate(-4690.78 -4801.13)"/>
      <path d="M4855,4804.84q-6.18,0-9.73,4t-3.55,10.83q0,7,3.35,10.92t9.57,3.89a25.9,25.9,0,0,0,7.59-1.06v2a24.77,24.77,0,0,1-8.13,1.15q-6.92,0-10.89-4.47t-4-12.49a19.58,19.58,0,0,1,1.9-8.83,13.73,13.73,0,0,1,5.46-5.9,16.12,16.12,0,0,1,8.28-2.08,19.87,19.87,0,0,1,8.6,1.8l-.92,2.07A16.66,16.66,0,0,0,4855,4804.84Z" transform="translate(-4690.78 -4801.13)"/>
      <path d="M4888.11,4824.49h-13.34l-4.58,11.59h-2.54l13.21-33h1.46l12.94,33h-2.58Zm-12.51-2.07h11.75l-4.47-11.84q-.56-1.39-1.35-3.86a36.05,36.05,0,0,1-1.33,3.91Z" transform="translate(-4690.78 -4801.13)"/>
      <path d="M4924.83,4819.35q0,8.27-4.33,12.5t-12.74,4.23h-7.86v-32.84h8.87q7.86,0,12,4.11T4924.83,4819.35Zm-2.49.09q0-7.05-3.58-10.61t-10.52-3.56h-6v28.79h5.44Q4922.34,4834.06,4922.34,4819.44Z" transform="translate(-4690.78 -4801.13)"/>
      <path d="M4959.06,4819.62q0,7.82-3.91,12.36t-10.78,4.55q-6.85,0-10.76-4.55t-3.91-12.41q0-7.84,3.94-12.34t10.77-4.5q6.87,0,10.76,4.53T4959.06,4819.62Zm-26.86,0q0,7.05,3.14,10.91t9,3.85q5.93,0,9.06-3.82t3.13-10.94q0-7.1-3.13-10.88t-9-3.78q-5.86,0-9,3.82T4932.2,4819.62Z" transform="translate(-4690.78 -4801.13)"/>
    </g>
    <g>
        <path d="M4988.62,4811.28q5.17,0,6.27,4.92h.09q.27-1.48,3.21-15.07h2.22l-7.41,34.95h-1.84l1-6.15H4992q-3.89,6.6-9.52,6.6-6.31,0-6.31-8.4a22,22,0,0,1,1.61-8.31,15.08,15.08,0,0,1,4.44-6.26A9.9,9.9,0,0,1,4988.62,4811.28Zm-5.59,23.22a7,7,0,0,0,4-1.4,14,14,0,0,0,3.59-3.77,18.4,18.4,0,0,0,2.39-5.19,17.71,17.71,0,0,0,.81-4.71,7,7,0,0,0-1.38-4.53,4.62,4.62,0,0,0-3.78-1.7,7.68,7.68,0,0,0-5,1.86,13.38,13.38,0,0,0-3.68,5.45,19.59,19.59,0,0,0-1.44,7.36Q4978.52,4834.51,4983,4834.51Z" transform="translate(-4690.78 -4801.13)"/>
        <path d="M5009,4836.53a7.68,7.68,0,0,1-6.06-2.46,10,10,0,0,1-2.18-6.86,19.63,19.63,0,0,1,1.59-7.79,14.75,14.75,0,0,1,4.39-5.93,9.74,9.74,0,0,1,6.17-2.2,5.89,5.89,0,0,1,4.09,1.37,4.75,4.75,0,0,1,1.53,3.73,6.78,6.78,0,0,1-3.67,6.2q-3.67,2.13-10.9,2.13h-.74a16.39,16.39,0,0,0-.13,2.2,8.47,8.47,0,0,0,1.66,5.65,6,6,0,0,0,4.79,1.94,13.72,13.72,0,0,0,6.2-1.64V4835A15,15,0,0,1,5009,4836.53Zm3.64-23.31a7.56,7.56,0,0,0-5.47,2.59,15.16,15.16,0,0,0-3.65,6.93h1.1q11.61,0,11.61-6.06a3.37,3.37,0,0,0-1-2.48A3.54,3.54,0,0,0,5012.61,4813.21Z" transform="translate(-4690.78 -4801.13)"/>
    </g>
    <g>
      <path d="M5035.88,4836.08v-32.84h2.29v30.68h15.66v2.16Z" transform="translate(-4690.78 -4801.13)"/>
      <path d="M5084.33,4819.62q0,7.82-3.91,12.36t-10.78,4.55q-6.85,0-10.76-4.55t-3.91-12.41q0-7.84,3.94-12.34t10.77-4.5q6.87,0,10.76,4.53T5084.33,4819.62Zm-26.86,0q0,7.05,3.14,10.91t9,3.85q5.93,0,9.06-3.82t3.13-10.94q0-7.1-3.13-10.88t-9-3.78q-5.86,0-9,3.82T5057.47,4819.62Z" transform="translate(-4690.78 -4801.13)"/>
      <path d="M5103.87,4819.53H5116v15a27.17,27.17,0,0,1-10.71,2q-7.77,0-11.92-4.39t-4.14-12.43a18.68,18.68,0,0,1,2.06-8.88,14.4,14.4,0,0,1,5.88-6,17.91,17.91,0,0,1,8.79-2.11,22.67,22.67,0,0,1,9.64,2l-.92,2.07a20.83,20.83,0,0,0-8.85-2q-6.49,0-10.3,4t-3.81,10.81q0,7.41,3.62,11.15t10.62,3.74a20.58,20.58,0,0,0,7.7-1.28v-11.54h-9.77Z" transform="translate(-4690.78 -4801.13)"/>
      <path d="M5124.67,4821.77v14.31h-2.29v-32.84h7.82q6.11,0,9,2.26t2.92,6.79a8.88,8.88,0,0,1-1.74,5.57,9.68,9.68,0,0,1-5.29,3.26l8.92,15h-2.74l-8.47-14.31Zm0-2h6.27a10,10,0,0,0,6.45-1.85,6.62,6.62,0,0,0,2.29-5.47q0-3.75-2.25-5.46t-7.32-1.71h-5.44Z" transform="translate(-4690.78 -4801.13)"/>
      <path d="M5176.4,4819.62q0,7.82-3.91,12.36t-10.78,4.55q-6.85,0-10.76-4.55t-3.91-12.41q0-7.84,3.94-12.34t10.77-4.5q6.87,0,10.76,4.53T5176.4,4819.62Zm-26.86,0q0,7.05,3.14,10.91t9,3.85q5.93,0,9.06-3.82t3.13-10.94q0-7.1-3.13-10.88t-9-3.78q-5.86,0-9,3.82T5149.54,4819.62Z" transform="translate(-4690.78 -4801.13)"/>
    </g>
</svg>