<svg xmlns="http://www.w3.org/2000/svg" viewBox="0 0 305.27 75.6" role="img" aria-label="Example Certificate Logo">
  <title class="example-logo-title">Example Certificate Logo</title>
    <g>
      <path d="M26.74,80.24a6.2,6.2,0,0,0-4.86,2,7.8,7.8,0,0,0-1.77,5.41,8.11,8.11,0,0,0,1.67,5.46A6,6,0,0,0,26.56,95a12.94,12.94,0,0,0,3.8-.53v1a12.41,12.41,0,0,1-4.07.57,6.92,6.92,0,0,1-5.45-2.23,9.08,9.08,0,0,1-2-6.24,9.8,9.8,0,0,1,.95-4.41,6.87,6.87,0,0,1,2.73-2.95,8.06,8.06,0,0,1,4.14-1,9.92,9.92,0,0,1,4.3.9l-.46,1A8.32,8.32,0,0,0,26.74,80.24Z" transform="translate(-17.41 -20.73)"/>
      <path d="M43,95.86H34V79.44h9V80.5H35.16v6.21h7.39v1.05H35.16v7H43Z" transform="translate(-17.41 -20.73)"/>
      <path d="M47.85,88.7v7.15H46.71V79.44h3.91a7.36,7.36,0,0,1,4.51,1.13A4,4,0,0,1,56.59,84a4.44,4.44,0,0,1-.87,2.79,4.83,4.83,0,0,1-2.64,1.63l4.46,7.48H56.16L51.93,88.7Zm0-1H51a5,5,0,0,0,3.22-.93,3.31,3.31,0,0,0,1.15-2.73,3.21,3.21,0,0,0-1.12-2.73,6.13,6.13,0,0,0-3.66-.85H47.85Z" transform="translate(-17.41 -20.73)"/>
      <path d="M64.65,95.86H63.5V80.52H58.16V79.44H70v1.08H64.65Z" transform="translate(-17.41 -20.73)"/>
      <path d="M72.42,95.86V79.44h1.15V95.86Z" transform="translate(-17.41 -20.73)"/>
      <path d="M79.36,95.86H78.22V79.44h9V80.5H79.36v7h7.41v1.07H79.36Z" transform="translate(-17.41 -20.73)"/>
      <path d="M89.76,95.86V79.44h1.15V95.86Z" transform="translate(-17.41 -20.73)"/>
      <path d="M102.57,80.24a6.2,6.2,0,0,0-4.86,2,7.81,7.81,0,0,0-1.77,5.41,8.11,8.11,0,0,0,1.67,5.46A6,6,0,0,0,102.39,95a12.94,12.94,0,0,0,3.8-.53v1a12.42,12.42,0,0,1-4.07.57,6.92,6.92,0,0,1-5.45-2.23,9.08,9.08,0,0,1-2-6.24,9.8,9.8,0,0,1,.95-4.41,6.87,6.87,0,0,1,2.73-2.95,8.06,8.06,0,0,1,4.14-1,9.92,9.92,0,0,1,4.3.9l-.46,1A8.32,8.32,0,0,0,102.57,80.24Z" transform="translate(-17.41 -20.73)"/>
      <path d="M117.75,90.06h-6.67l-2.29,5.79h-1.27l6.6-16.49h.73l6.47,16.49H120Zm-6.26-1h5.87l-2.24-5.92q-.28-.7-.67-1.93a18.06,18.06,0,0,1-.66,2Z" transform="translate(-17.41 -20.73)"/>
      <path d="M127.92,95.86h-1.16V80.52h-5.33V79.44h11.83v1.08h-5.33Z" transform="translate(-17.41 -20.73)"/>
      <path d="M144.67,95.86h-9V79.44h9V80.5h-7.83v6.21h7.39v1.05h-7.39v7h7.83Z" transform="translate(-17.41 -20.73)"/>
    </g>
    <g>
      <path d="M182.6,90.06h-6.67l-2.29,5.79h-1.27L179,79.37h.73l6.47,16.49h-1.29Zm-6.25-1h5.87L180,83.11q-.28-.7-.67-1.93a17.85,17.85,0,0,1-.66,2Z" transform="translate(-17.41 -20.73)"/>
      <path d="M195.5,80.24a6.2,6.2,0,0,0-4.86,2,7.81,7.81,0,0,0-1.77,5.41,8.11,8.11,0,0,0,1.67,5.46A6,6,0,0,0,195.32,95a12.94,12.94,0,0,0,3.8-.53v1a12.42,12.42,0,0,1-4.07.57,6.92,6.92,0,0,1-5.45-2.23,9.08,9.08,0,0,1-2-6.24,9.8,9.8,0,0,1,.95-4.41,6.87,6.87,0,0,1,2.73-2.95,8.06,8.06,0,0,1,4.14-1,9.92,9.92,0,0,1,4.3.9l-.46,1A8.32,8.32,0,0,0,195.5,80.24Z" transform="translate(-17.41 -20.73)"/>
      <path d="M214.67,95.86h-1.16V87.78h-9.59v8.07h-1.15V79.44h1.15v7.29h9.59V79.44h1.16Z" transform="translate(-17.41 -20.73)"/>
      <path d="M219.32,95.86V79.44h1.15V95.86Z" transform="translate(-17.41 -20.73)"/>
      <path d="M234.09,95.86h-9V79.44h9V80.5h-7.83v6.21h7.39v1.05h-7.39v7h7.83Z" transform="translate(-17.41 -20.73)"/>
      <path d="M247.51,79.44h1.25l-6.14,16.42h-1l-6.12-16.42h1.22l4.13,11.17q.94,2.53,1.27,3.79.22-.84.89-2.62Z" transform="translate(-17.41 -20.73)"/>
      <path d="M260.05,95.86h-9V79.44h9V80.5h-7.83v6.21h7.39v1.05h-7.39v7h7.83Z" transform="translate(-17.41 -20.73)"/>
      <path d="M271,95.86,264.87,80.7h-.09q.09,1.39.09,2.85V95.86h-1.1V79.44h1.77l5.82,14.44h.07l5.82-14.44H279V95.86h-1.16V83.42q0-1.3.13-2.7h-.09l-6.14,15.14Z" transform="translate(-17.41 -20.73)"/>
      <path d="M292.59,95.86h-9V79.44h9V80.5h-7.83v6.21h7.39v1.05h-7.39v7h7.83Z" transform="translate(-17.41 -20.73)"/>
      <path d="M308.24,95.86h-1.16l-9.73-14.58h-.09q.13,2.61.13,3.93V95.86h-1.1V79.44h1.15L307.17,94h.07q-.1-2-.1-3.84V79.44h1.11Z" transform="translate(-17.41 -20.73)"/>
      <path d="M317.17,95.86H316V80.52h-5.33V79.44h11.83v1.08h-5.33Z" transform="translate(-17.41 -20.73)"/>
    </g>
    <g>
      <path d="M156.76,83.06a3,3,0,0,1,2.31.9,3.56,3.56,0,0,1,.82,2.49,7.85,7.85,0,0,1-.59,3.06,4.94,4.94,0,0,1-1.62,2.17,3.94,3.94,0,0,1-2.37.75,2.91,2.91,0,0,1-2.32-.91,3.84,3.84,0,0,1-.79-2.6,7.34,7.34,0,0,1,.61-3,5.05,5.05,0,0,1,1.64-2.13A3.87,3.87,0,0,1,156.76,83.06Zm-.07.71a2.91,2.91,0,0,0-1.85.65,4.44,4.44,0,0,0-1.31,1.87,6.82,6.82,0,0,0-.49,2.58q0,2.84,2.34,2.84a3,3,0,0,0,1.87-.64,4.34,4.34,0,0,0,1.3-1.89,7.5,7.5,0,0,0,.49-2.74,2.89,2.89,0,0,0-.61-2A2.2,2.2,0,0,0,156.69,83.77Z" transform="translate(-17.41 -20.73)"/>
      <path d="M159.62,96.34a2.55,2.55,0,0,1-.85-.16v-.75a2.9,2.9,0,0,0,.83.13,1.39,1.39,0,0,0,1.11-.44,3.61,3.61,0,0,0,.62-1.54l2-9.68h-1.7l.12-.56,1.7-.12.29-1.33a3.76,3.76,0,0,1,1-2,2.66,2.66,0,0,1,1.89-.63,4.42,4.42,0,0,1,1.38.26l-.21.66a4.26,4.26,0,0,0-1.22-.22,1.79,1.79,0,0,0-1.27.44,2.8,2.8,0,0,0-.7,1.48l-.29,1.36h2.06l-.13.67h-2.06l-2.09,9.88a3.91,3.91,0,0,1-.86,1.95A2.15,2.15,0,0,1,159.62,96.34Z" transform="translate(-17.41 -20.73)"/>
    </g>
  </g>
</svg>
